<?xml version="1.0" encoding="UTF-8" standalone="no"?>
<!-- Created with Inkscape (http://www.inkscape.org/) -->

<svg
   xmlns:osb="http://www.openswatchbook.org/uri/2009/osb"
   xmlns:dc="http://purl.org/dc/elements/1.1/"
   xmlns:cc="http://creativecommons.org/ns#"
   xmlns:rdf="http://www.w3.org/1999/02/22-rdf-syntax-ns#"
   xmlns:svg="http://www.w3.org/2000/svg"
   xmlns="http://www.w3.org/2000/svg"
   xmlns:sodipodi="http://sodipodi.sourceforge.net/DTD/sodipodi-0.dtd"
   xmlns:inkscape="http://www.inkscape.org/namespaces/inkscape"
   width="744.09003"
   height="200"
   id="svg2"
   version="1.1"
   inkscape:version="0.91 r13725"
   sodipodi:docname="beamng_logo_2016.svg"
   inkscape:export-filename="F:\Documents\logo\Final Logo\Logo_final2.png"
   inkscape:export-xdpi="242.10001"
   inkscape:export-ydpi="242.10001">
  <defs
     id="defs4">
    <linearGradient
       osb:paint="solid"
       id="linearGradient4006">
      <stop
         id="stop4008"
         offset="0"
         style="stop-color:#ff6600;stop-opacity:1;" />
    </linearGradient>
  </defs>
  <sodipodi:namedview
     id="base"
     pagecolor="#ffffff"
     bordercolor="#666666"
     borderopacity="1.0"
     inkscape:pageopacity="0.0"
     inkscape:pageshadow="2"
     inkscape:zoom="1.5969582"
     inkscape:cx="298.68797"
     inkscape:cy="94.415432"
     inkscape:document-units="px"
     inkscape:current-layer="text2985-8-5-6-8-9-9-6-1-1"
     showgrid="false"
     inkscape:window-width="1920"
     inkscape:window-height="1027"
     inkscape:window-x="-8"
     inkscape:window-y="-8"
     inkscape:window-maximized="1" />
  <metadata
     id="metadata7">
    <rdf:RDF>
      <cc:Work
         rdf:about="">
        <dc:format>image/svg+xml</dc:format>
        <dc:type
           rdf:resource="http://purl.org/dc/dcmitype/StillImage" />
        <dc:title></dc:title>
      </cc:Work>
    </rdf:RDF>
  </metadata>
  <g
     inkscape:groupmode="layer"
     id="layer3"
     inkscape:label="base"
     style="display:none"
     transform="translate(0,-852.36218)" />
  <g
     inkscape:label="Misc"
     inkscape:groupmode="layer"
     id="layer1"
     style="display:none"
     transform="translate(0,-852.36218)">
    <g
       id="text2985-8-5-6-8-4-8-1"
       style="font-size:119.38450623px;font-style:normal;font-variant:normal;font-weight:bold;font-stretch:normal;line-height:125%;letter-spacing:-0.10446144px;word-spacing:0px;fill:#ffffff;fill-opacity:1;stroke:none;font-family:Open Sans;-inkscape-font-specification:Open Sans Bold"
       transform="matrix(1,0,-0.19270189,1,-680.7901,-311.11261)" />
    <g
       id="g4334" />
  </g>
  <g
     inkscape:groupmode="layer"
     id="layer4"
     inkscape:label="LOGO"
     transform="translate(0,-852.36218)"
     style="display:inline">
    <path
       inkscape:connector-curvature="0"
       style="color:#ffffff;fill:#ff6600;fill-opacity:1;fill-rule:nonzero;stroke:none;stroke-width:20.59053993;marker:none;visibility:visible;display:inline;overflow:visible;enable-background:accumulate"
       d="m 104.05496,953.89734 c 0,14.99364 -12.154814,27.14845 -27.148454,27.14845 -14.993682,0 -27.148442,-12.15481 -27.148442,-27.14845 0,-14.99347 12.15476,-27.14826 27.148442,-27.14826 14.99364,0 27.148454,12.15479 27.148454,27.14826 z"
       id="path4084-39-1-8-9-5-4-1-1-2"
       inkscape:export-filename="C:\Users\sam\Desktop\bitmap.png"
       inkscape:export-xdpi="61.085434"
       inkscape:export-ydpi="61.085434" />
    <path
       inkscape:connector-curvature="0"
       style="color:#ffffff;fill:#ff6600;fill-opacity:1;fill-rule:nonzero;stroke:none;stroke-width:20.59053993;marker:none;visibility:visible;display:inline;overflow:visible;enable-background:accumulate"
       d="m 147.79147,915.98167 c 0,8.02031 -6.50173,14.52202 -14.52202,14.52202 -8.02034,0 -14.52206,-6.50171 -14.52206,-14.52202 0,-8.02031 6.50172,-14.52201 14.52206,-14.52201 8.02029,0 14.52202,6.5017 14.52202,14.52201 z"
       id="path4084-3-1-2-3-8-1-8-23-7-9"
       inkscape:export-filename="C:\Users\sam\Desktop\bitmap.png"
       inkscape:export-xdpi="61.085434"
       inkscape:export-ydpi="61.085434" />
    <path
       inkscape:connector-curvature="0"
       style="color:#ffffff;fill:#ff6600;fill-opacity:1;fill-rule:nonzero;stroke:none;stroke-width:20.59053993;marker:none;visibility:visible;display:inline;overflow:visible;enable-background:accumulate"
       d="m 164.75101,986.53546 c 0,11.65872 -9.45115,21.10984 -21.10975,21.10984 -11.65859,0 -21.1097,-9.45112 -21.1097,-21.10984 0,-11.65837 9.45111,-21.10951 21.1097,-21.10951 11.6586,0 21.10975,9.45114 21.10975,21.10951 z"
       id="path4084-3-4-2-2-9-5-7-8-3-4-1"
       inkscape:export-filename="C:\Users\sam\Desktop\bitmap.png"
       inkscape:export-xdpi="61.085434"
       inkscape:export-ydpi="61.085434" />
    <path
       style="font-size:medium;font-style:normal;font-variant:normal;font-weight:normal;font-stretch:normal;text-indent:0;text-align:start;text-decoration:none;line-height:normal;letter-spacing:normal;word-spacing:normal;text-transform:none;direction:ltr;block-progression:tb;writing-mode:lr-tb;text-anchor:start;baseline-shift:baseline;color:#ffffff;fill:#ffffff;fill-opacity:1;stroke:none;stroke-width:9;marker:none;visibility:visible;display:inline;overflow:visible;enable-background:accumulate;font-family:Sans;-inkscape-font-specification:Sans"
       d="m 114.95335,918.26425 -17.374283,11.76671 c 3.348303,2.90939 6.108803,6.49993 7.997683,10.57165 l 15.71959,-10.61762 c -3.40907,-2.91665 -5.76028,-7.04426 -6.34299,-11.72074 z m 29.55466,12.31828 c -3.10687,2.39995 -6.98291,3.86094 -11.21514,3.86094 -0.5592,0 -1.10809,-0.0431 -1.6547,-0.092 l 3.63113,28.54346 c 2.61848,-0.92728 5.42938,-1.47083 8.3654,-1.47083 1.66617,0 3.29681,0.14958 4.87215,0.45963 l -3.99884,-31.30128 z m -37.18464,31.80687 c -1.21325,4.3462 -3.3508,8.30021 -6.15913,11.67479 l 17.69602,8.64118 c 0.6944,-4.54393 2.58863,-8.69135 5.37775,-12.08846 l -16.91464,-8.22751 z"
       id="path3193-3"
       inkscape:connector-curvature="0"
       inkscape:export-filename="C:\Users\sam\Desktop\bitmap.png"
       inkscape:export-xdpi="61.085434"
       inkscape:export-ydpi="61.085434" />
    <g
       style="font-style:normal;font-variant:normal;font-weight:bold;font-stretch:normal;font-size:117.66707611px;line-height:125%;font-family:'Open Sans';-inkscape-font-specification:'Open Sans Bold';letter-spacing:-0.10295869px;word-spacing:0px;fill:#ffffff;fill-opacity:1;stroke:none"
       id="text2985-8-5-6-8-9-9-6-1-1">
      <path
         d="m 208.78265,911.83758 26.14186,0 q 17.86839,0 25.91204,5.11346 8.1011,5.05601 8.1011,16.14475 0,7.52656 -3.56219,12.35274 -3.50473,4.82619 -9.3651,5.80292 l 0,0.57455 q 7.98619,1.78109 11.49092,6.66474 3.56219,4.88364 3.56219,12.98474 0,11.49093 -8.33092,17.92584 -8.27347,6.43492 -22.52222,6.43492 l -31.42768,0 0,-83.99866 z m 17.81094,33.26623 10.34183,0 q 7.23928,0 10.45674,-2.24073 3.27492,-2.24073 3.27492,-7.41165 0,-4.82619 -3.56219,-6.89456 -3.50473,-2.12582 -11.1462,-2.12582 l -9.3651,0 0,18.67276 z m 0,14.13384 0,21.89021 11.60583,0 q 7.3542,0 10.85893,-2.81528 3.50473,-2.81528 3.50473,-8.61819 0,-10.45674 -14.9382,-10.45674 l -11.03129,0 z"
         style="letter-spacing:-2.41217351px;fill:#ffffff;fill-opacity:1"
         id="path3414" />
      <path
         d="m 310.65062,942.86308 q -5.57309,0 -8.7331,3.56218 -3.16,3.50474 -3.61964,9.99711 l 24.59058,0 q -0.11491,-6.49237 -3.38982,-9.99711 -3.27492,-3.56218 -8.84802,-3.56218 z m 2.47055,54.12226 q -15.51275,0 -24.24585,-8.56074 -8.7331,-8.56074 -8.7331,-24.24586 0,-16.14475 8.04365,-24.9353 8.1011,-8.84802 22.34985,-8.84802 13.61674,0 21.20075,7.75638 7.58401,7.75637 7.58401,21.43057 l 0,8.50329 -41.42478,0 q 0.28727,7.4691 4.424,11.66329 4.13674,4.19418 11.60584,4.19418 5.80292,0 10.97383,-1.20654 5.17092,-1.20655 10.80147,-3.84946 l 0,13.55929 q -4.59637,2.29818 -9.82474,3.38982 -5.22837,1.1491 -12.75493,1.1491 z"
         style="letter-spacing:-2.41217351px;fill:#ffffff;fill-opacity:1"
         id="path3416" />
      <path
         style="letter-spacing:-2.41217351px;fill:#ffffff;fill-opacity:1"
         d="M 377.58594 77.917969 C 368.58471 77.917969 360.38859 79.85209 352.99609 83.720703 L 358.79883 95.556641 C 365.73169 92.454094 371.76387 90.902344 376.89648 90.902344 C 383.56122 90.902344 386.89453 94.158395 386.89453 100.66992 L 386.89453 103.48633 L 375.74805 103.83008 C 366.13397 104.1748 358.93242 105.97471 354.14453 109.23047 C 349.39495 112.44793 347.01953 117.4672 347.01953 124.28516 C 347.01953 130.79668 348.78276 135.814 352.30664 139.33789 C 355.86883 142.86178 360.7336 144.62305 366.90039 144.62305 C 367.22668 144.62305 367.53728 144.61146 367.85547 144.60547 L 367.85742 144.62695 L 404.28125 143.47852 L 404.28125 143.47461 L 404.30273 143.47461 L 404.30273 100.66992 C 404.30273 93.009302 402.00457 87.302528 397.4082 83.548828 C 392.81183 79.795121 386.20413 77.917969 377.58594 77.917969 z M 386.89453 113.71289 L 386.89453 118.99805 C 386.89453 122.86666 385.6682 125.97015 383.2168 128.30664 C 380.8037 130.64313 377.56794 131.81055 373.50781 131.81055 C 367.83896 131.81055 365.00391 129.33953 365.00391 124.39844 C 365.00391 120.95116 366.24858 118.38651 368.73828 116.70117 C 371.22798 115.01583 375.01897 114.09462 380.11328 113.94141 L 386.89453 113.71289 z "
         transform="translate(0,852.36218)"
         id="path3418" />
      <path
         d="m 477.38579,995.83624 -17.52366,0 0,-37.51787 q 0,-6.95201 -2.35564,-10.39929 -2.29818,-3.50473 -7.29674,-3.50473 -6.72219,0 -9.76728,4.9411 -3.0451,4.9411 -3.0451,16.25966 l 0,30.22113 -17.52366,0 0,-64.23427 13.38693,0 2.35564,8.21601 0.97673,0 q 2.58545,-4.424 7.4691,-6.89455 4.88364,-2.52801 11.20365,-2.52801 14.42111,0 19.53457,9.42256 l 1.55128,0 q 2.58546,-4.48146 7.58401,-6.95201 5.05601,-2.47055 11.37601,-2.47055 10.91638,0 16.48948,5.63056 5.63056,5.57309 5.63056,17.92584 l 0,41.88442 -17.58112,0 0,-37.51787 q 0,-6.95201 -2.35564,-10.39929 -2.29818,-3.50473 -7.29674,-3.50473 -6.43492,0 -9.65237,4.59637 -3.16001,4.59637 -3.16001,14.59348 l 0,32.23204 z"
         style="letter-spacing:-2.41217351px;fill:#ffffff;fill-opacity:1"
         id="path3420" />
      <path
         style="letter-spacing:-2.41217351px;fill:#ffffff;fill-opacity:1"
         d="M 534.43945 59.474609 L 534.43945 143.47461 L 550.35352 143.47461 L 550.35352 103.94531 C 550.35352 100.52424 550.16067 95.387939 549.78906 88.681641 L 554.8125 88.681641 L 586.32031 143.47461 L 608.95703 143.47461 L 608.95703 59.474609 L 592.92773 59.474609 L 592.92773 99.234375 C 592.92773 102.4919 593.08241 107.4725 593.38086 114.05273 L 588.55273 114.05273 L 556.9043 59.474609 L 534.43945 59.474609 z "
         transform="translate(0,852.36218)"
         id="path3422" />
      <path
         d="m 659.51881,948.66599 33.32369,0 0,43.55061 q -8.1011,2.64291 -15.28293,3.6771 -7.12438,1.09164 -14.59348,1.09164 -19.01748,0 -29.07204,-11.1462 -9.9971,-11.20365 -9.9971,-32.11714 0,-20.33894 11.60583,-31.71495 11.66329,-11.37602 32.2895,-11.37602 12.92729,0 24.93531,5.17092 l -5.91783,14.24874 q -9.19274,-4.59637 -19.13239,-4.59637 -11.54838,0 -18.50039,7.75638 -6.95201,7.75637 -6.95201,20.85603 0,13.6742 5.5731,20.91348 5.63055,7.18183 16.31711,7.18183 5.5731,0 11.31857,-1.14909 l 0,-17.52366 -15.91494,0 0,-14.8233 z"
         style="letter-spacing:-2.41217351px;fill:#ffffff;fill-opacity:1"
         id="path3424" />
    </g>
  </g>
  <g
     inkscape:groupmode="layer"
     id="layer5"
     inkscape:label="Logo drive"
     style="display:none"
     transform="translate(0,-852.36218)">
    <path
       sodipodi:type="arc"
       style="color:#ffffff;fill:#fc6b03;fill-opacity:1;fill-rule:nonzero;stroke:none;stroke-width:20.59053993;marker:none;visibility:visible;display:inline;overflow:visible;enable-background:accumulate"
       id="path3154-9"
       sodipodi:cx="491.78571"
       sodipodi:cy="671.64789"
       sodipodi:rx="7.8571429"
       sodipodi:ry="7.8571429"
       d="m 499.64285,671.64789 a 7.8571429,7.8571429 0 0 1 -7.85714,7.85714 7.8571429,7.8571429 0 0 1 -7.85715,-7.85714 7.8571429,7.8571429 0 0 1 7.85715,-7.85714 7.8571429,7.8571429 0 0 1 7.85714,7.85714 z"
       transform="translate(-17.285713,-385.35714)"
       inkscape:export-filename="C:\Users\sam\Desktop\bitmap.png"
       inkscape:export-xdpi="38.645885"
       inkscape:export-ydpi="38.645885" />
    <text
       xml:space="preserve"
       style="font-size:89.64411926px;font-style:normal;font-variant:normal;font-weight:bold;font-stretch:normal;line-height:125%;letter-spacing:-0.0784386px;word-spacing:0px;fill:#ffffff;fill-opacity:1;stroke:none;font-family:Open Sans;-inkscape-font-specification:Open Sans Bold"
       x="472.21802"
       y="327.61014"
       id="text2985-8-5-6-8-9-9-6-1-4-27"
       sodipodi:linespacing="125%"
       inkscape:export-filename="C:\Users\sam\Desktop\bitmap.png"
       inkscape:export-xdpi="38.645885"
       inkscape:export-ydpi="38.645885"
       transform="matrix(1.1205515,0,-0.14181188,0.89241771,0,0)"><tspan
         sodipodi:role="line"
         id="tspan2987-0-0-0-8-0-8-6-7-0-9"
         x="472.21802"
         y="327.61014"
         style="font-size:89.64411926px;font-style:oblique;font-variant:normal;font-weight:800;font-stretch:normal;text-align:start;line-height:125%;letter-spacing:-1.83770323px;writing-mode:lr-tb;text-anchor:start;fill:#fc6b03;fill-opacity:1;font-family:Open Sans Extrabold;-inkscape-font-specification:'Open Sans Extrabold, Ultra-Bold Oblique'">drive</tspan></text>
    <path
       style="fill:#fc6b03;fill-opacity:1;stroke:none"
       d="m 569.5479,248.12968 c 0,0 2.115,-3e-5 4.35628,-3e-5 2.24127,0 12.79817,-0.92167 16.0993,-0.85232 3.30113,0.0693 4.04061,-0.12627 5.39801,0.53665 1.35739,0.66291 -22.34963,10.7013 -22.34963,10.7013 l -5.14546,-7.00793 z"
       id="path3945-5"
       inkscape:connector-curvature="0"
       sodipodi:nodetypes="cszsccc"
       inkscape:export-filename="C:\Users\sam\Desktop\bitmap.png"
       inkscape:export-xdpi="38.645885"
       inkscape:export-ydpi="38.645885" />
    <rect
       style="color:#ffffff;fill:#fc6b03;fill-opacity:1;fill-rule:nonzero;stroke:none;stroke-width:20.59053993;marker:none;visibility:visible;display:inline;overflow:visible;enable-background:accumulate"
       id="rect3947-4"
       width="16.560125"
       height="12.416423"
       x="635.70117"
       y="268.01465"
       inkscape:export-filename="C:\Users\sam\Desktop\bitmap.png"
       inkscape:export-xdpi="38.645885"
       inkscape:export-ydpi="38.645885" />
    <path
       sodipodi:type="arc"
       style="color:#ffffff;fill:#ffffff;fill-opacity:1;fill-rule:nonzero;stroke:none;stroke-width:20.59053993;marker:none;visibility:visible;display:inline;overflow:visible;enable-background:accumulate"
       id="path3154"
       sodipodi:cx="491.78571"
       sodipodi:cy="671.64789"
       sodipodi:rx="7.8571429"
       sodipodi:ry="7.8571429"
       d="m 499.64285,671.64789 a 7.8571429,7.8571429 0 0 1 -7.85714,7.85714 7.8571429,7.8571429 0 0 1 -7.85715,-7.85714 7.8571429,7.8571429 0 0 1 7.85715,-7.85714 7.8571429,7.8571429 0 0 1 7.85714,7.85714 z"
       transform="translate(-17.285713,-65.357139)" />
    <text
       xml:space="preserve"
       style="font-size:89.64411926px;font-style:normal;font-variant:normal;font-weight:bold;font-stretch:normal;line-height:125%;letter-spacing:-0.0784386px;word-spacing:0px;fill:#ffffff;fill-opacity:1;stroke:none;font-family:Open Sans;-inkscape-font-specification:Open Sans Bold"
       x="517.5979"
       y="686.18658"
       id="text2985-8-5-6-8-9-9-6-1-4"
       sodipodi:linespacing="125%"
       inkscape:export-filename="G:\+ Games\+ Working\R2\Logo\path4084-3-4-2-2-9.png"
       inkscape:export-xdpi="181.33821"
       inkscape:export-ydpi="181.33821"
       transform="matrix(1.1205515,0,-0.14181188,0.89241771,0,0)"><tspan
         sodipodi:role="line"
         id="tspan2987-0-0-0-8-0-8-6-7-0"
         x="517.5979"
         y="686.18658"
         style="font-size:89.64411926px;font-style:oblique;font-variant:normal;font-weight:800;font-stretch:normal;text-align:start;line-height:125%;letter-spacing:-1.83770323px;writing-mode:lr-tb;text-anchor:start;fill:#ffffff;fill-opacity:1;font-family:Open Sans Extrabold;-inkscape-font-specification:'Open Sans Extrabold, Ultra-Bold Oblique'">drive</tspan></text>
    <path
       style="fill:#ffffff;fill-opacity:1;stroke:none"
       d="m 569.5479,568.12968 c 0,0 2.115,-3e-5 4.35628,-3e-5 2.24127,0 12.79817,-0.92167 16.0993,-0.85232 3.30113,0.0693 4.04061,-0.12627 5.39801,0.53665 1.35739,0.66291 -22.34963,10.7013 -22.34963,10.7013 l -5.14546,-7.00793 z"
       id="path3945"
       inkscape:connector-curvature="0"
       sodipodi:nodetypes="cszsccc" />
    <rect
       style="color:#ffffff;fill:#ffffff;fill-opacity:1;fill-rule:nonzero;stroke:none;stroke-width:20.59053993;marker:none;visibility:visible;display:inline;overflow:visible;enable-background:accumulate"
       id="rect3947"
       width="16.560125"
       height="12.416423"
       x="635.70117"
       y="588.01465" />
    <path
       sodipodi:type="arc"
       style="color:#ffffff;fill:#ffffff;fill-opacity:1;fill-rule:nonzero;stroke:none;stroke-width:20.59053993;marker:none;visibility:visible;display:inline;overflow:visible;enable-background:accumulate"
       id="path3154-5"
       sodipodi:cx="491.78571"
       sodipodi:cy="671.64789"
       sodipodi:rx="7.8571429"
       sodipodi:ry="7.8571429"
       d="m 499.64285,671.64789 a 7.8571429,7.8571429 0 0 1 -7.85714,7.85714 7.8571429,7.8571429 0 0 1 -7.85715,-7.85714 7.8571429,7.8571429 0 0 1 7.85715,-7.85714 7.8571429,7.8571429 0 0 1 7.85714,7.85714 z"
       transform="translate(-17.285713,54.642861)" />
    <text
       xml:space="preserve"
       style="font-size:89.64411926px;font-style:normal;font-variant:normal;font-weight:bold;font-stretch:normal;line-height:125%;letter-spacing:-0.0784386px;word-spacing:0px;fill:#ffffff;fill-opacity:1;stroke:none;font-family:Open Sans;-inkscape-font-specification:Open Sans Bold"
       x="534.61536"
       y="820.65265"
       id="text2985-8-5-6-8-9-9-6-1-4-5"
       sodipodi:linespacing="125%"
       inkscape:export-filename="G:\+ Games\+ Working\R2\Logo\path4084-3-4-2-2-9.png"
       inkscape:export-xdpi="181.33821"
       inkscape:export-ydpi="181.33821"
       transform="matrix(1.1205515,0,-0.14181188,0.89241771,0,0)"><tspan
         sodipodi:role="line"
         id="tspan2987-0-0-0-8-0-8-6-7-0-1"
         x="534.61536"
         y="820.65265"
         style="font-size:89.64411926px;font-style:oblique;font-variant:normal;font-weight:800;font-stretch:normal;text-align:start;line-height:125%;letter-spacing:-1.83770323px;writing-mode:lr-tb;text-anchor:start;fill:#ffffff;fill-opacity:1;font-family:Open Sans Extrabold;-inkscape-font-specification:'Open Sans Extrabold, Ultra-Bold Oblique'">drive</tspan></text>
    <path
       style="fill:#ffffff;fill-opacity:1;stroke:none"
       d="m 569.5479,688.12968 c 0,0 2.115,-3e-5 4.35628,-3e-5 2.24127,0 12.79817,-0.92167 16.0993,-0.85232 3.30113,0.0693 4.04061,-0.12627 5.39801,0.53665 1.35739,0.66291 -22.34963,10.7013 -22.34963,10.7013 l -5.14546,-7.00793 z"
       id="path3945-7"
       inkscape:connector-curvature="0"
       sodipodi:nodetypes="cszsccc" />
    <rect
       style="color:#ffffff;fill:#ffffff;fill-opacity:1;fill-rule:nonzero;stroke:none;stroke-width:20.59053993;marker:none;visibility:visible;display:inline;overflow:visible;enable-background:accumulate"
       id="rect3947-1"
       width="16.560125"
       height="12.416423"
       x="635.70117"
       y="708.01465" />
    <path
       sodipodi:type="arc"
       style="color:#ffffff;fill:#fc6b03;fill-opacity:1;fill-rule:nonzero;stroke:none;stroke-width:20.59053993;marker:none;visibility:visible;display:inline;overflow:visible;enable-background:accumulate"
       id="path3154-4"
       sodipodi:cx="491.78571"
       sodipodi:cy="671.64789"
       sodipodi:rx="7.8571429"
       sodipodi:ry="7.8571429"
       d="m 499.64285,671.64789 a 7.8571429,7.8571429 0 0 1 -7.85714,7.85714 7.8571429,7.8571429 0 0 1 -7.85715,-7.85714 7.8571429,7.8571429 0 0 1 7.85715,-7.85714 7.8571429,7.8571429 0 0 1 7.85714,7.85714 z"
       transform="translate(-17.285713,-185.35714)" />
    <text
       xml:space="preserve"
       style="font-size:89.64411926px;font-style:normal;font-variant:normal;font-weight:bold;font-stretch:normal;line-height:125%;letter-spacing:-0.0784386px;word-spacing:0px;fill:#ffffff;fill-opacity:1;stroke:none;font-family:Open Sans;-inkscape-font-specification:Open Sans Bold"
       x="500.58044"
       y="551.72052"
       id="text2985-8-5-6-8-9-9-6-1-4-2"
       sodipodi:linespacing="125%"
       inkscape:export-filename="G:\+ Games\+ Working\R2\Logo\path4084-3-4-2-2-9.png"
       inkscape:export-xdpi="181.33821"
       inkscape:export-ydpi="181.33821"
       transform="matrix(1.1205515,0,-0.14181188,0.89241771,0,0)"><tspan
         sodipodi:role="line"
         id="tspan2987-0-0-0-8-0-8-6-7-0-3"
         x="500.58044"
         y="551.72052"
         style="font-size:89.64411926px;font-style:oblique;font-variant:normal;font-weight:800;font-stretch:normal;text-align:start;line-height:125%;letter-spacing:-1.83770323px;writing-mode:lr-tb;text-anchor:start;fill:#fc6b03;fill-opacity:1;font-family:Open Sans Extrabold;-inkscape-font-specification:'Open Sans Extrabold, Ultra-Bold Oblique'">drive</tspan></text>
    <path
       style="fill:#fc6b03;fill-opacity:1;stroke:none"
       d="m 569.5479,448.12968 c 0,0 2.115,-3e-5 4.35628,-3e-5 2.24127,0 12.79817,-0.92167 16.0993,-0.85232 3.30113,0.0693 4.04061,-0.12627 5.39801,0.53665 1.35739,0.66291 -22.34963,10.7013 -22.34963,10.7013 l -5.14546,-7.00793 z"
       id="path3945-2"
       inkscape:connector-curvature="0"
       sodipodi:nodetypes="cszsccc" />
    <rect
       style="color:#ffffff;fill:#fc6b03;fill-opacity:1;fill-rule:nonzero;stroke:none;stroke-width:20.59053993;marker:none;visibility:visible;display:inline;overflow:visible;enable-background:accumulate"
       id="rect3947-2"
       width="16.560125"
       height="12.416423"
       x="635.70117"
       y="468.01465" />
  </g>
</svg>
