<?xml version="1.0" encoding="UTF-8" standalone="no"?>
<!-- Created with Inkscape (http://www.inkscape.org/) -->

<svg
   xmlns:dc="http://purl.org/dc/elements/1.1/"
   xmlns:cc="http://creativecommons.org/ns#"
   xmlns:rdf="http://www.w3.org/1999/02/22-rdf-syntax-ns#"
   xmlns:svg="http://www.w3.org/2000/svg"
   xmlns="http://www.w3.org/2000/svg"
   xmlns:sodipodi="http://sodipodi.sourceforge.net/DTD/sodipodi-0.dtd"
   xmlns:inkscape="http://www.inkscape.org/namespaces/inkscape"
   width="61.565365mm"
   height="16.157574mm"
   viewBox="0 0 61.565365 16.157574"
   version="1.1"
   id="svg8"
   inkscape:version="0.92.1 r15371"
   sodipodi:docname="fmod.svg">
  <defs
     id="defs2">
    <clipPath
       id="clipPath4531"
       clipPathUnits="userSpaceOnUse">
      <path
         inkscape:connector-curvature="0"
         id="path4529"
         d="m 3781.03,411.422 c 0,-59.512 -48.24,-107.731 -107.75,-107.731 H 1550.1 c -59.51,0 -107.75,48.219 -107.75,107.731 v 831.288 c 0,59.52 48.24,107.76 107.75,107.76 h 2123.18 c 59.51,0 107.75,-48.24 107.75,-107.76 z" />
    </clipPath>
    <linearGradient
       id="linearGradient4537"
       spreadMethod="pad"
       gradientTransform="matrix(2338.67,0,0,-2338.67,1442.35,827.08)"
       gradientUnits="userSpaceOnUse"
       y2="0"
       x2="1"
       y1="0"
       x1="0">
      <stop
         id="stop4533"
         offset="0"
         style="stop-opacity:1;stop-color:#00adef" />
      <stop
         id="stop4535"
         offset="1"
         style="stop-opacity:1;stop-color:#2e3192" />
    </linearGradient>
    <clipPath
       id="clipPath4541"
       clipPathUnits="userSpaceOnUse">
      <path
         inkscape:connector-curvature="0"
         id="path4539"
         d="m 3781.03,411.422 c 0,-59.512 -48.24,-107.731 -107.75,-107.731 H 1550.1 c -59.51,0 -107.75,48.219 -107.75,107.731 v 831.288 c 0,59.52 48.24,107.76 107.75,107.76 h 2123.18 c 59.51,0 107.75,-48.24 107.75,-107.76 z" />
    </clipPath>
  </defs>
  <sodipodi:namedview
     id="base"
     pagecolor="#ffffff"
     bordercolor="#666666"
     borderopacity="1.0"
     inkscape:pageopacity="0.0"
     inkscape:pageshadow="2"
     inkscape:zoom="1.4"
     inkscape:cx="-425.57534"
     inkscape:cy="-119.96765"
     inkscape:document-units="mm"
     inkscape:current-layer="g4505"
     showgrid="false"
     inkscape:window-width="3440"
     inkscape:window-height="1387"
     inkscape:window-x="-8"
     inkscape:window-y="-8"
     inkscape:window-maximized="1" />
  <metadata
     id="metadata5">
    <rdf:RDF>
      <cc:Work
         rdf:about="">
        <dc:format>image/svg+xml</dc:format>
        <dc:type
           rdf:resource="http://purl.org/dc/dcmitype/StillImage" />
        <dc:title />
      </cc:Work>
    </rdf:RDF>
  </metadata>
  <g
     inkscape:label="Layer 1"
     inkscape:groupmode="layer"
     id="layer1"
     transform="translate(-159.3613,-75.892606)">
    <g
       transform="matrix(0.35277777,0,0,-0.35277777,15.966399,188.94092)"
       inkscape:label="ink_ext_XXXXXX"
       id="g4493">
      <g
         transform="scale(0.1)"
         id="g4495">
        <g
           transform="matrix(10,0,0,10,883.27737,-955.01079)"
           inkscape:label="ink_ext_XXXXXX"
           id="g4503">
          <g
             transform="scale(0.1)"
             id="g4505">
            <path
               inkscape:connector-curvature="0"
               id="path4563"
               style="fill:#ffffff;fill-opacity:1;fill-rule:evenodd;stroke:none"
               d="m 4865.82,3773.79 h 11.88 c 6.07,0 12.67,-1.17 12.67,-8.83 0,-9.12 -7.26,-9.51 -15.17,-9.51 h -9.38 z m -8.98,-50.41 h 8.98 v 24.8 h 9.51 l 15.71,-24.8 h 9.62 l -16.48,25.47 c 8.55,0.92 15.18,5.27 15.18,15.7 0,11.09 -6.49,16.5 -20.22,16.5 h -22.3 z m -20.51,27.77 c 0,23.64 17.67,41.86 40.78,41.86 22.85,0 40.53,-18.22 40.53,-41.86 0,-24.14 -17.68,-42.36 -40.53,-42.36 -23.11,0 -40.78,18.22 -40.78,42.36 z m -8.97,0 c 0,-28.38 22.7,-49.63 49.75,-49.63 26.93,0 49.51,21.25 49.51,49.63 0,27.85 -22.58,49.1 -49.51,49.1 -27.05,0 -49.75,-21.25 -49.75,-49.1" />
            <path
               inkscape:connector-curvature="0"
               id="path4565"
               style="fill:#ffffff;fill-opacity:1;fill-rule:nonzero;stroke:none"
               d="m 3489.06,3957.41 c 0,-28.29 -22.93,-51.22 -51.23,-51.22 -28.28,0 -51.21,22.93 -51.21,51.22 0,28.29 22.93,51.22 51.21,51.22 28.3,0 51.23,-22.93 51.23,-51.22" />
            <path
               inkscape:connector-curvature="0"
               id="path4567"
               style="fill:#ffffff;fill-opacity:1;fill-rule:nonzero;stroke:none"
               d="m 4721.78,3829.73 c 1.76,2.69 3.42,5.74 4.9,8.98 8.05,15.72 24.63,26.25 43.5,26.25 26.83,0 48.59,-21.76 48.59,-48.61 0,-6.84 -1.41,-13.24 -3.97,-19.12 l -1.36,-2.89 c -26.84,-55.22 -83.65,-92.82 -148.05,-92.82 -89.41,0 -161.89,72.5 -161.89,161.92 0,89.41 72.48,161.91 161.89,161.91 h 7.11 c 26.6,-1.15 51.74,-8.7 73.79,-21.21 v 155.39 h 96.23 V 3940.5 c 0,-25.4 -22.42,-52.51 -51.78,-52.51 -33.18,0 -58.34,10.66 -77.83,27.24 -11.15,8.7 -25.2,13.89 -40.41,13.89 h -7.11 c -36.27,0 -65.68,-29.41 -65.68,-65.68 0,-36.27 29.41,-65.69 65.68,-65.69 23.91,0 44.9,12.86 56.39,31.98" />
            <path
               inkscape:connector-curvature="0"
               id="path4569"
               style="fill:#ffffff;fill-opacity:1;fill-rule:nonzero;stroke:none"
               d="m 4381.7,3863.44 c 0,36.27 -29.41,65.68 -65.68,65.68 -36.27,0 -65.69,-29.41 -65.69,-65.68 0,-36.27 29.42,-65.69 65.69,-65.69 36.27,0 65.68,29.42 65.68,65.69 z m -227.6,0 c 0,89.41 72.5,161.91 161.92,161.91 89.41,0 161.89,-72.5 161.89,-161.91 0,-89.42 -72.48,-161.92 -161.89,-161.92 -89.42,0 -161.92,72.5 -161.92,161.92" />
            <path
               inkscape:connector-curvature="0"
               id="path4571"
               style="fill:#ffffff;fill-opacity:1;fill-rule:nonzero;stroke:none"
               d="m 3958.38,3929.32 c -8.09,0 -14.98,-5.28 -17.33,-12.6 l -38.69,-133.46 c -13.98,-47.22 -57.42,-81.72 -109.22,-81.74 -51.81,0.02 -95.25,34.52 -109.21,81.74 l -38.7,133.46 c -2.36,7.32 -9.25,12.6 -17.34,12.6 -8.07,0 -15.02,-5.28 -17.38,-12.6 l -38.67,-133.46 c -13.99,-47.22 -57.76,-81.72 -109.57,-81.74 h -26.84 v 96.02 h 27.19 c 8.01,0 14.74,5.23 17.11,12.62 l 38.69,133.45 c 13.98,47.23 57.65,81.72 109.47,81.74 51.84,-0.02 95.45,-34.51 109.43,-81.74 l 38.7,-133.45 c 2.38,-7.39 9.1,-12.62 17.12,-12.62 8.01,0 14.75,5.23 17.13,12.62 l 38.68,133.45 c 13.98,47.23 57.61,81.72 109.43,81.74 51.82,-0.02 95.49,-34.51 109.47,-81.74 l 38.69,-133.45 c 2.37,-7.39 9.1,-12.62 17.13,-12.62 h 27.17 v -96.02 H 4124 c -51.81,0.02 -95.56,34.52 -109.55,81.74 l -38.69,133.46 c -2.36,7.32 -9.31,12.6 -17.38,12.6" />
            <path
               inkscape:connector-curvature="0"
               id="path4573"
               style="fill:#ffffff;fill-opacity:1;fill-rule:nonzero;stroke:none"
               d="m 3425.35,4063.31 c -36.27,0 -65.66,-29.4 -65.66,-65.67 v -296.12 h -96.25 v 204.63 h -81.98 v 95.94 h 82.06 c 2.36,87.36 73.9,157.44 161.83,157.44 h 96.08 v -96.22 h -96.08" />
          </g>
        </g>
      </g>
    </g>
  </g>
</svg>
