<?xml version="1.0" encoding="UTF-8" standalone="no"?>
<!-- Created with Inkscape (http://www.inkscape.org/) -->

<svg
   xmlns:dc="http://purl.org/dc/elements/1.1/"
   xmlns:cc="http://creativecommons.org/ns#"
   xmlns:rdf="http://www.w3.org/1999/02/22-rdf-syntax-ns#"
   xmlns:svg="http://www.w3.org/2000/svg"
   xmlns="http://www.w3.org/2000/svg"
   xmlns:xlink="http://www.w3.org/1999/xlink"
   xmlns:sodipodi="http://sodipodi.sourceforge.net/DTD/sodipodi-0.dtd"
   xmlns:inkscape="http://www.inkscape.org/namespaces/inkscape"
   width="26.438938mm"
   height="24.001995mm"
   viewBox="0 0 93.681277 85.046439"
   id="svg3643"
   version="1.1"
   inkscape:version="0.91 r13725"
   sodipodi:docname="rotate.svg">
  <defs
     id="defs3645">
    <radialGradient
       inkscape:collect="always"
       xlink:href="#linearGradient4286"
       id="radialGradient4318-9"
       cx="355.06961"
       cy="301.82703"
       fx="355.06961"
       fy="301.82703"
       r="27.027231"
       gradientTransform="matrix(5.7528477,-0.99297727,0.14497896,0.83994061,-2126.8901,-335.73962)"
       gradientUnits="userSpaceOnUse" />
    <linearGradient
       inkscape:collect="always"
       id="linearGradient4286">
      <stop
         style="stop-color:#000000;stop-opacity:1;"
         offset="0"
         id="stop4288" />
      <stop
         style="stop-color:#000000;stop-opacity:0;"
         offset="1"
         id="stop4290" />
    </linearGradient>
    <radialGradient
       inkscape:collect="always"
       xlink:href="#linearGradient4286"
       id="radialGradient4318"
       cx="355.06961"
       cy="301.82703"
       fx="355.06961"
       fy="301.82703"
       r="27.027231"
       gradientTransform="matrix(5.7528477,-0.99297727,0.14497896,0.83994061,-1945.1218,551.9838)"
       gradientUnits="userSpaceOnUse" />
  </defs>
  <sodipodi:namedview
     id="base"
     pagecolor="#ffffff"
     bordercolor="#666666"
     borderopacity="1.0"
     inkscape:pageopacity="0.0"
     inkscape:pageshadow="2"
     inkscape:zoom="0.35"
     inkscape:cx="296.12637"
     inkscape:cy="-51.762495"
     inkscape:document-units="px"
     inkscape:current-layer="layer1"
     showgrid="false"
     fit-margin-top="0"
     fit-margin-left="0"
     fit-margin-right="0"
     fit-margin-bottom="0"
     inkscape:window-width="1920"
     inkscape:window-height="1017"
     inkscape:window-x="1912"
     inkscape:window-y="-8"
     inkscape:window-maximized="1" />
  <metadata
     id="metadata3648">
    <rdf:RDF>
      <cc:Work
         rdf:about="">
        <dc:format>image/svg+xml</dc:format>
        <dc:type
           rdf:resource="http://purl.org/dc/dcmitype/StillImage" />
        <dc:title></dc:title>
      </cc:Work>
    </rdf:RDF>
  </metadata>
  <g
     inkscape:label="Layer 1"
     inkscape:groupmode="layer"
     id="layer1"
     transform="translate(-78.873633,-395.55327)">
    <circle
       r="26.936975"
       cy="437.39804"
       cx="123.93407"
       class="cls-1"
       id="circle"
       style="fill:none;stroke:#000000;stroke-width:3.5915966px" />
    <path
       style="fill:#000000;fill-opacity:1;fill-rule:evenodd;stroke:none;stroke-width:1.74568272px;stroke-linecap:butt;stroke-linejoin:miter;stroke-opacity:1"
       d="m 123.93405,416.3658 a 21.032201,21.032201 0 0 0 -21.03223,21.03224 21.032201,21.032201 0 0 0 21.03223,21.03223 21.032201,21.032201 0 0 0 21.03224,-21.03223 21.032201,21.032201 0 0 0 -21.03224,-21.03224 z m -10.45433,6.92566 10.95264,0 c 6.63762,0 9.95603,3.09854 9.95603,9.29365 0,3.67835 -1.38284,6.38855 -4.14852,8.13092 l 4.02496,10.78655 -6.26531,0 -3.27749,-9.45975 -5.51785,0 0,9.45975 -5.72446,0 0,-28.21112 z m 5.72446,4.89599 0,8.96143 5.31123,0 c 1.35519,0 2.36457,-0.41606 3.02833,-1.24577 0.66377,-0.8297 0.9946,-1.9223 0.9946,-3.27749 0,-1.35517 -0.35857,-2.4329 -1.07765,-3.23495 -0.69141,-0.80204 -1.70081,-1.20322 -3.02833,-1.20322 l -5.22818,0 z"
       id="path3388"
       inkscape:connector-curvature="0" />
    <path
       style="opacity:1;fill:none;fill-opacity:1;stroke:url(#radialGradient4318);stroke-width:3.15100002;stroke-miterlimit:4;stroke-dasharray:none;stroke-opacity:1"
       id="path4284"
       sodipodi:type="arc"
       sodipodi:cx="123.9283"
       sodipodi:cy="437.39804"
       sodipodi:rx="42.821442"
       sodipodi:ry="42.821442"
       sodipodi:start="5.9778903"
       sodipodi:end="1.3382277"
       d="m 164.76961,424.52701 a 42.821442,42.821442 0 0 1 -3.60509,34.01671 42.821442,42.821442 0 0 1 -27.36683,20.52291"
       sodipodi:open="true" />
    <g
       id="layer1-5"
       inkscape:label="Layer 1"
       transform="translate(1050.1401,268.70762)">
      <path
         style="fill:#000000;fill-opacity:1;fill-rule:evenodd;stroke:none;stroke-opacity:1"
         inkscape:connector-curvature="0"
         class="cls-1"
         d="m -890.82545,161.99783 3.99253,-8.5031 9.24773,1.67162 -0.90601,-1.75598 -9.24773,-1.67161 -3.99253,8.50311 0.90601,1.75596 z m 9.48154,2.13525"
         id="path3379" />
    </g>
    <path
       style="opacity:1;fill:none;fill-opacity:1;stroke:url(#radialGradient4318-9);stroke-width:3.15100002;stroke-miterlimit:4;stroke-dasharray:none;stroke-opacity:1"
       id="path4284-5"
       sodipodi:type="arc"
       sodipodi:cx="-57.840107"
       sodipodi:cy="-450.32535"
       sodipodi:rx="42.821442"
       sodipodi:ry="42.821442"
       sodipodi:start="5.9778903"
       sodipodi:end="1.3382277"
       d="m -16.998801,-463.19638 a 42.821442,42.821442 0 0 1 -3.605084,34.01671 42.821442,42.821442 0 0 1 -27.366832,20.52291"
       sodipodi:open="true"
       transform="matrix(-0.98893083,0.14837729,-0.14837729,-0.98893083,0,0)" />
    <g
       id="layer1-5-8"
       inkscape:label="Layer 1"
       transform="matrix(-0.96857972,0.24870331,-0.24870331,-0.96857972,-732.5472,826.53555)">
      <path
         style="fill:#000000;fill-opacity:1;fill-rule:evenodd;stroke:none;stroke-opacity:1"
         inkscape:connector-curvature="0"
         class="cls-1"
         d="m -890.82545,161.99783 3.99253,-8.5031 9.24773,1.67162 -0.90601,-1.75598 -9.24773,-1.67161 -3.99253,8.50311 0.90601,1.75596 z m 9.48154,2.13525"
         id="path3379-9" />
    </g>
  </g>
</svg>
