<?xml version="1.0" encoding="UTF-8" standalone="no"?>
<!-- Created with Inkscape (http://www.inkscape.org/) -->

<svg
   xmlns:dc="http://purl.org/dc/elements/1.1/"
   xmlns:cc="http://creativecommons.org/ns#"
   xmlns:rdf="http://www.w3.org/1999/02/22-rdf-syntax-ns#"
   xmlns:svg="http://www.w3.org/2000/svg"
   xmlns="http://www.w3.org/2000/svg"
   xmlns:sodipodi="http://sodipodi.sourceforge.net/DTD/sodipodi-0.dtd"
   xmlns:inkscape="http://www.inkscape.org/namespaces/inkscape"
   width="256"
   height="256"
   viewBox="0 0 67.733332 67.733335"
   version="1.1"
   id="svg8"
   inkscape:version="0.92.1 r15371"
   sodipodi:docname="svgElectrics.svg">
  <defs
     id="defs2" />
  <sodipodi:namedview
     id="base"
     pagecolor="#ffffff"
     bordercolor="#666666"
     borderopacity="1.0"
     inkscape:pageopacity="0.0"
     inkscape:pageshadow="2"
     inkscape:zoom="0.70710678"
     inkscape:cx="-68.642256"
     inkscape:cy="270.58556"
     inkscape:document-units="mm"
     inkscape:current-layer="text5074"
     showgrid="false"
     units="px"
     inkscape:window-width="1920"
     inkscape:window-height="1017"
     inkscape:window-x="-8"
     inkscape:window-y="-8"
     inkscape:window-maximized="1"
     inkscape:lockguides="true" />
  <metadata
     id="metadata5">
    <rdf:RDF>
      <cc:Work
         rdf:about="">
        <dc:format>image/svg+xml</dc:format>
        <dc:type
           rdf:resource="http://purl.org/dc/dcmitype/StillImage" />
        <dc:title></dc:title>
      </cc:Work>
    </rdf:RDF>
  </metadata>
  <g
     inkscape:label="Layer 1"
     inkscape:groupmode="layer"
     id="layer1"
     transform="translate(0,-229.26665)">
    <g
       aria-label="S"
       style="font-style:normal;font-weight:normal;font-size:10.58333302px;line-height:1.25;font-family:sans-serif;letter-spacing:0px;word-spacing:0px;fill:#fea327;fill-opacity:1;stroke:none;stroke-width:0.26458332"
       id="text5074"
       transform="translate(2.6652578,-5.249291)">
      <path
         style="fill:#fea327;fill-opacity:1;stroke:none;stroke-width:0.08473656px;stroke-linecap:butt;stroke-linejoin:miter;stroke-opacity:1"
         d="m 10.723589,251.85337 -1.7368441,0.59531 -2.2329386,1.58802 -3.6369873,5.79861 -0.626835,2.33939 v 5.77484 l 0.5048787,0.87437 v 4.25504 l 0.830957,0.83096 H 7.969236 l 0.7198526,-0.71934 v -1.68724 h 7.6951374 0.541569 7.695137 v 1.68724 l 0.719853,0.71934 h 4.143417 l 0.830956,-0.83096 v -4.25504 l 0.504878,-0.87437 v -5.77484 l -0.626835,-2.33939 -3.636986,-5.79861 -2.232939,-1.58802 -1.736845,-0.59531 h -5.114416 -1.634009 z m 2.92747,3.32486 h 2.186947 1.634009 2.186946 l 2.282548,0.24805 1.736845,0.49609 0.892969,1.24075 0.249079,0.92914 H 17.273577 16.036443 8.4896177 l 0.2490803,-0.92914 0.8929687,-1.24075 1.7368443,-0.49609 z m -6.1531121,5.45807 h 8.5384961 1.237134 8.538497 l 0.37207,0.37207 -1.677933,0.19378 -1.42627,0.82372 -0.412378,1.39475 0.898137,1.29811 h 1.75028 1.935282 l 0.340548,0.34055 -0.390158,0.39016 H 17.074623 16.235398 6.1083677 l -0.390157,-0.39016 0.3405476,-0.34055 h 1.9352823 1.7502807 l 0.8981367,-1.29811 -0.412378,-1.39475 -1.4262696,-0.82372 -1.6779338,-0.19378 z m 4.8627521,0.79271 -0.367936,1.82211 v 1.35496 h 4.242635 0.839225 4.242635 v -1.35496 l -0.367936,-1.82211 H 17.223968 16.08657 Z m -6.0533771,6.10454 h 9.9280761 0.839225 9.928076 v 0.94309 l -1.374077,0.36794 H 16.925795 16.384226 7.6813981 l -1.3740762,-0.36794 z m 6.2931551,7.46363 -9.1095205,0.0424 -1.1859742,0.339 0.2542479,0.67799 1.0588503,0.80512 1.525488,0.0848 h 2.3300904 c 0,0 2.4577614,0.0847 2.6272301,0.0847 0.169471,0 1.863968,0.1695 1.863968,0.1695 l 0.508497,0.29662 -0.211874,0.38138 -1.525488,0.42374 -1.3130979,0.1695 -3.7708292,0.21187 -2.0339844,0.29611 -2.2453411,0.33899 -1.5673461,0.42375 -1.1017415,0.678 -0.5508708,0.88987 0.4661214,1.05885 0.8898682,1.01699 2.0758423,0.72037 2.5419635,0.55087 c 0,0 2.7962507,0.25425 3.0504598,0.25425 0.25421,0 2.5001354,-0.0853 2.6696045,-0.12764 0.1694703,-0.0423 1.6944703,-0.29611 1.6944703,-0.29611 l 0.932243,-0.339 0.08475,-0.67799 -0.677995,-0.59325 -1.9063437,-0.29662 -3.4742062,-0.0424 -4.0250771,-0.25425 -0.6779948,-0.339 0.042375,-0.42375 1.6944703,-0.25373 5.1691933,-0.63562 5.2534252,-0.97462 2.076359,-0.72037 0.677995,-1.10122 -0.550871,-1.35599 -1.398364,-0.88987 z m 16.076537,0 -9.109003,0.0424 -1.186491,0.339 0.254248,0.67799 1.059367,0.80512 1.525488,0.0848 h 2.33009 c 0,0 2.457245,0.0847 2.626714,0.0847 0.16947,0 1.864484,0.1695 1.864484,0.1695 l 0.507981,0.29662 -0.211357,0.38138 -1.525489,0.42374 -1.313614,0.1695 -3.77083,0.21187 -2.033467,0.29611 -2.245341,0.33899 -1.567863,0.42375 -1.101742,0.678 -0.550354,0.88987 0.465605,1.05885 0.889868,1.01699 2.076359,0.72037 2.541964,0.55087 c 0,0 2.796257,0.25425 3.05046,0.25425 0.254212,0 2.499619,-0.0853 2.669087,-0.12764 0.169471,-0.0423 1.694987,-0.29611 1.694987,-0.29611 l 0.931727,-0.339 0.08475,-0.67799 -0.677479,-0.59325 -1.90686,-0.29662 -3.474206,-0.0424 -4.025077,-0.25425 -0.677478,-0.339 0.04237,-0.42375 1.69447,-0.25373 5.169195,-0.63562 5.253424,-0.97462 2.075844,-0.72037 0.677994,-1.10122 -0.55087,-1.35599 -1.397849,-0.88987 z"
         id="svgESC"
         inkscape:connector-curvature="0"
         inkscape:label="#path5117" />
      <path
         style="fill:#fea327;fill-opacity:1;stroke:none;stroke-width:0.09924197px;stroke-linecap:butt;stroke-linejoin:miter;stroke-opacity:1"
         d="m 43.095258,251.85337 -1.736847,0.59531 -2.232938,1.58802 -3.63647,5.79861 -0.626835,2.33939 v 5.77484 l 0.504362,0.87437 v 4.25504 l 0.831474,0.83096 h 4.143415 l 0.719336,-0.71934 v -1.68724 h 7.695139 0.542083 7.695139 v 1.68724 l 0.719336,0.71934 h 4.143417 l 0.830956,-0.83096 v -4.25504 l 0.504878,-0.87437 v -5.77484 l -0.626835,-2.33939 -3.63647,-5.79861 -2.232938,-1.58802 -1.736844,-0.59531 H 49.84368 48.210191 Z m 2.927469,3.32486 h 2.187464 1.633489 2.186948 l 2.282547,0.24805 1.736847,0.49609 0.893485,1.24075 0.249081,0.92914 h -7.547345 -1.236615 -7.547343 l 0.249079,-0.92914 0.892969,-1.24075 1.736847,-0.49609 z m -6.153113,5.45807 h 8.539014 1.236615 8.538498 l 0.372071,0.37207 -1.677416,0.19378 -1.426787,0.82372 -0.41238,1.39475 0.898139,1.29811 h 1.750279 1.935282 l 0.340548,0.34055 -0.390157,0.39016 H 49.446805 48.607066 38.480551 l -0.390157,-0.39016 0.340548,-0.34055 h 1.935282 1.749763 l 0.898655,-1.29811 -0.41238,-1.39475 -1.426784,-0.82372 -1.677934,-0.19378 z m 4.863269,0.79271 -0.368453,1.82211 v 1.35496 h 4.242636 0.839739 4.242121 v -1.35496 l -0.367938,-1.82211 h -3.725354 -1.137397 z m -6.053894,6.10454 h 9.928077 0.839739 9.928077 v 0.94309 l -1.374076,0.36794 h -8.702829 -0.542083 -8.702829 l -1.374076,-0.36794 z m -2.131137,7.40523 v 8.47235 h 3.721219 v -8.47235 z m 21.46019,0 v 8.47235 h 3.720703 v -8.47235 z"
         id="svgTC"
         inkscape:connector-curvature="0"
         inkscape:label="#path5141" />
    </g>
  </g>
</svg>
