<?xml version="1.0" encoding="UTF-8" standalone="no"?>
<svg
   xmlns:dc="http://purl.org/dc/elements/1.1/"
   xmlns:cc="http://creativecommons.org/ns#"
   xmlns:rdf="http://www.w3.org/1999/02/22-rdf-syntax-ns#"
   xmlns:svg="http://www.w3.org/2000/svg"
   xmlns="http://www.w3.org/2000/svg"
   xmlns:sodipodi="http://sodipodi.sourceforge.net/DTD/sodipodi-0.dtd"
   xmlns:inkscape="http://www.inkscape.org/namespaces/inkscape"
   version="1.1"
   id="svg4774"
   viewBox="0 0 201.9685 201.9685"
   height="57mm"
   width="57mm"
   inkscape:version="0.91 r13725"
   sodipodi:docname="steam-logo.svg">
  <sodipodi:namedview
     pagecolor="#ffffff"
     bordercolor="#666666"
     borderopacity="1"
     objecttolerance="10"
     gridtolerance="10"
     guidetolerance="10"
     inkscape:pageopacity="0"
     inkscape:pageshadow="2"
     inkscape:window-width="670"
     inkscape:window-height="480"
     id="namedview5333"
     showgrid="false"
     inkscape:zoom="1.168499"
     inkscape:cx="67.589256"
     inkscape:cy="119.51306"
     inkscape:window-x="0"
     inkscape:window-y="0"
     inkscape:window-maximized="0"
     inkscape:current-layer="svg4774" />
  <defs
     id="defs4776" />
  <metadata
     id="metadata4779">
    <rdf:RDF>
      <cc:Work
         rdf:about="">
        <dc:format>image/svg+xml</dc:format>
        <dc:type
           rdf:resource="http://purl.org/dc/dcmitype/StillImage" />
        <dc:title />
      </cc:Work>
    </rdf:RDF>
  </metadata>
  <g
     transform="translate(-32.003516,-297.32319)"
     id="layer1"
     style="fill:#ffffff;fill-opacity:1">
    <path
       style="fill:#ffffff;fill-opacity:1"
       id="path4219"
       d="m 143.91282,367.12853 c 0,0.196 0,0.392 0.01,0.576 l -28.508,41.412 c -4.618,-0.21 -9.252,0.6 -13.646,2.41 -1.936997,0.79 -3.751997,1.76 -5.454997,2.88 l -62.599004,-25.77 c 4.9e-4,0 -1.4485,23.83 4.588,41.59 l 44.254004,18.26 c 2.222,9.93 9.034,18.64 19.083997,22.83 16.443,6.87 35.402,-0.96 42.242,-17.41 1.78,-4.3 2.61,-8.81 2.49,-13.31 l 40.79,-29.15 c 0.33,0.01 0.67,0.02 1,0.02 24.41,0 44.25,-19.9 44.25,-44.338 0,-24.44 -19.84,-44.322 -44.25,-44.322 -24.4,0 -44.25,19.882 -44.25,44.322 z m -6.84,83.918 c -5.294,12.71 -19.9,18.74 -32.596,13.45 -5.856997,-2.44 -10.278997,-6.91 -12.829997,-12.24 l 14.404997,5.97 c 9.363,3.9 20.105,-0.54 23.997,-9.9 3.904,-9.37 -0.525,-20.13 -9.883,-24.03 l -14.891,-6.17 c 5.746,-2.18 12.278,-2.26 18.381,0.28 6.153,2.56 10.927,7.38 13.457,13.54 2.53,6.16 2.52,12.96 -0.04,19.1 m 51.09,-54.38 c -16.25,0 -29.48,-13.25 -29.48,-29.538 0,-16.275 13.23,-29.529 29.48,-29.529 16.26,0 29.49,13.254 29.49,29.529 0,16.288 -13.23,29.538 -29.49,29.538 m -22.09,-29.583 c 0,-12.253 9.92,-22.191 22.14,-22.191 12.23,0 22.15,9.938 22.15,22.191 0,12.254 -9.92,22.183 -22.15,22.183 -12.22,0 -22.14,-9.929 -22.14,-22.183 z" />
  </g>
</svg>
