<?xml version="1.0" encoding="UTF-8" standalone="no"?>
<!-- Created with Inkscape (http://www.inkscape.org/) -->

<svg
   xmlns:dc="http://purl.org/dc/elements/1.1/"
   xmlns:cc="http://creativecommons.org/ns#"
   xmlns:rdf="http://www.w3.org/1999/02/22-rdf-syntax-ns#"
   xmlns:svg="http://www.w3.org/2000/svg"
   xmlns="http://www.w3.org/2000/svg"
   xmlns:sodipodi="http://sodipodi.sourceforge.net/DTD/sodipodi-0.dtd"
   xmlns:inkscape="http://www.inkscape.org/namespaces/inkscape"
   width="256"
   height="256"
   viewBox="0 0 256 256"
   id="svg5022"
   version="1.1"
   inkscape:version="0.92.1 r15371"
   sodipodi:docname="basic.svg">
  <defs
     id="defs5024" />
  <sodipodi:namedview
     id="base"
     pagecolor="#ffffff"
     bordercolor="#666666"
     borderopacity="1.0"
     inkscape:pageopacity="0.0"
     inkscape:pageshadow="2"
     inkscape:zoom="1.4142136"
     inkscape:cx="-237.21191"
     inkscape:cy="189.35589"
     inkscape:document-units="px"
     inkscape:current-layer="layer1"
     showgrid="true"
     units="px"
     inkscape:window-width="1920"
     inkscape:window-height="1017"
     inkscape:window-x="-8"
     inkscape:window-y="-8"
     inkscape:window-maximized="1"
     showguides="false"
     inkscape:guide-bbox="true">
    <inkscape:grid
       type="xygrid"
       id="grid5755" />
  </sodipodi:namedview>
  <metadata
     id="metadata5027">
    <rdf:RDF>
      <cc:Work
         rdf:about="">
        <dc:format>image/svg+xml</dc:format>
        <dc:type
           rdf:resource="http://purl.org/dc/dcmitype/StillImage" />
        <dc:title></dc:title>
      </cc:Work>
    </rdf:RDF>
  </metadata>
  <g
     inkscape:label="Layer 1"
     inkscape:groupmode="layer"
     id="layer1"
     transform="translate(0,-796.36216)">
    <path
       style="opacity:1;fill:none;fill-opacity:1;stroke:#0f0f0f;stroke-width:4;stroke-linejoin:round;stroke-miterlimit:4;stroke-dasharray:none;stroke-opacity:1"
       d="M 118.41347,820.8419 A 103.51269,103.51269 0 0 0 16.561017,906.94488 103.51269,103.51269 0 0 0 101.18967,1026.3923 103.51269,103.51269 0 0 0 220.63705,941.76363 103.51269,103.51269 0 0 0 136.00841,822.31624 103.51269,103.51269 0 0 0 118.41347,820.8419 Z m 0.18556,56.38684 a 47.125107,47.125107 0 0 1 47.12551,47.1255 47.125107,47.125107 0 0 1 -47.12551,47.12551 47.125107,47.125107 0 0 1 -47.125499,-47.12551 47.125107,47.125107 0 0 1 47.125499,-47.1255 z"
       id="brake_FL_disk"
       inkscape:connector-curvature="0"
       inkscape:label="#disk" />
    <g
       inkscape:transform-center-y="-73.18555"
       transform="translate(-10.25305,0)"
       id="g8181" />
    <g
       inkscape:transform-center-y="-73.18555"
       transform="matrix(0.70710678,0.70710678,-0.70710678,0.70710678,680.2512,179.27167)"
       id="g8189" />
    <g
       inkscape:transform-center-y="-73.18555"
       transform="matrix(0,1,-1,0,1041.7472,794.29612)"
       id="g8197" />
    <g
       inkscape:transform-center-y="-73.18555"
       transform="matrix(-0.70710678,0.70710678,-0.70710678,-0.70710678,862.47556,1484.8004)"
       id="g8205" />
    <g
       inkscape:transform-center-y="-73.18555"
       transform="matrix(-1,0,0,-1,247.45111,1846.2964)"
       id="g8213" />
    <g
       inkscape:transform-center-y="-73.18555"
       transform="matrix(-0.70710678,-0.70710678,0.70710678,-0.70710678,-443.05314,1667.0247)"
       id="g8221" />
    <g
       inkscape:transform-center-y="-73.18555"
       transform="matrix(0,-1,1,0,-804.54917,1052.0003)"
       id="g8229" />
    <g
       inkscape:transform-center-y="-73.18555"
       transform="matrix(0.70710678,-0.70710678,0.70710678,0.70710678,-625.2775,361.49603)"
       id="g8237" />
  </g>
</svg>
